# xmcd CD database file
#
# Track frame offsets:
#	182
#	13760
#	26145
#	37295
#	53187
#	67645
#	84572
#	98715
#	110237
#	128827
#	138525
#	159432
#	169680
#	188922
#	200937
#	219700
#	237880
#	258807
#	277457
#	290790
#
# Disc length: 4204 seconds
#
# Revision: 1
# Processed by: cddbd v1.4PL0 Copyright (c) Steve Scherf et al.
# Submitted via: CDex 1.50beta9
#
DISCID=3a106a14
DTITLE=VARIOUS ARTIST - THE BEST OF COUNTRY and IRISH
DYEAR=1900
DGENRE=Country
TTITLE0=Whatever Happened To Old Fashioned Love-Daniel O'Donnell
TTITLE1=Don't It Make My Brown Eyes Blue-Crystal Gayle
TTITLE2=Eighteen Yellow Roses-Sean O'Farrell
TTITLE3=Dear God-Mary Duff
TTITLE4=I Don't Know Why I Love You But I Do-Charley Pride
TTITLE5=I'll Take You Home Again Kathleen-Foster and Allen
TTITLE6=You'll Never Get To Heaven-Sarah Jory
TTITLE7=Travellin'Light-Mick Flavin
TTITLE8=Nobody's Child-Declan Nernry
TTITLE9=Star Of The County Down-Dominic Kirwan
TTITLE10=The Mountains Of Mourne-Daniel O'Donnell
TTITLE11=Silver Threads And Golden Needles-Crystal Gayle
TTITLE12=The Rose Of Allendale-Foster and Allen
TTITLE13=The Key's In The Mailbox-Philomena Begley
TTITLE14=I'd Love You To Want Me-Sean O'Farrell
TTITLE15=Til A Tear Becomes A Rose-Sarah Jory
TTITLE16=Back Home Again-John Hogan
TTITLE17=Just When I Needed You Most-Tracy Elsdon
TTITLE18=You've Got To Stand For Something-Charley Pride
TTITLE19=Through The Eyes Of An Irishman-Dominic Kirwan
EXTD=
EXTT0=
EXTT1=
EXTT2=
EXTT3=
EXTT4=
EXTT5=
EXTT6=
EXTT7=
EXTT8=
EXTT9=
EXTT10=
EXTT11=
EXTT12=
EXTT13=
EXTT14=
EXTT15=
EXTT16=
EXTT17=
EXTT18=
EXTT19=
PLAYORDER=
